<?xml version="1.0" standalone="no"?>
<!DOCTYPE svg PUBLIC "-//W3C//DTD SVG 20010904//EN"
 "http://www.w3.org/TR/2001/REC-SVG-20010904/DTD/svg10.dtd">
<svg version="1.0" xmlns="http://www.w3.org/2000/svg"
 width="32.000000pt" height="32.000000pt" viewBox="0 0 32.000000 32.000000"
 preserveAspectRatio="xMidYMid meet">

<g transform="translate(0.000000,32.000000) scale(0.100000,-0.100000)"
fill="#000000" stroke="none">
<path d="M108 234 c-43 -36 -43 -37 -40 -93 2 -31 7 -60 11 -64 5 -4 41 -7 82
-5 l74 3 3 50 c2 27 8 52 13 56 8 5 -81 89 -94 89 -3 0 -25 -16 -49 -36z m90
-14 c35 -28 37 -32 34 -80 l-4 -50 -69 0 -69 0 0 45 c0 28 -5 45 -12 45 -12 0
62 69 75 70 5 0 25 -13 45 -30z"/>
<path d="M144 214 c3 -9 6 -21 7 -27 0 -7 4 -3 9 8 13 29 12 35 -6 35 -11 0
-14 -5 -10 -16z"/>
<path d="M101 138 c0 -18 3 -27 6 -20 3 9 9 10 17 3 9 -7 12 -3 11 17 0 17 -6
28 -17 30 -14 3 -18 -3 -17 -30z m24 12 c3 -5 1 -10 -4 -10 -6 0 -11 5 -11 10
0 6 2 10 4 10 3 0 8 -4 11 -10z"/>
<path d="M151 158 c0 -9 2 -24 5 -32 5 -13 9 -14 20 -5 10 8 14 8 14 0 0 -6 5
-11 10 -11 6 0 10 15 9 33 0 27 -2 29 -9 12 l-9 -20 -1 20 c-1 19 -1 19 -14 2
-14 -18 -14 -18 -19 0 -4 15 -5 15 -6 1z"/>
<path d="M215 240 c3 -5 8 -10 11 -10 2 0 4 5 4 10 0 6 -5 10 -11 10 -5 0 -7
-4 -4 -10z"/>
</g>
</svg>
